<svg width="100" height="100" viewBox="0 0 24 24" xmlns="http://www.w3.org/2000/svg" fill="white">
<path d="M12 0c-1.1 0-2 .9-2 2v1.26c-.68.2-1.33.48-1.95.84l-.89-.89c-.78-.78-2.05-.78-2.83 0l-1.41 1.41c-.78.78-.78 2.05 0 2.83l.89.89c-.36.62-.64 1.27-.84 1.95H2c-1.1 0-2 .9-2 2v2c0 1.1.9 2 2 2h1.26c.2.68.48 1.33.84 1.95l-.89.89c-.78.78-.78 2.05 0 2.83l1.41 1.41c.78.78 2.05.78 2.83 0l.89-.89c.62.36 1.27.64 1.95.84V22c0 1.1.9 2 2 2h2c1.1 0 2-.9 2-2v-1.26c.68-.2 1.33-.48 1.95-.84l.89.89c.78.78 2.05.78 2.83 0l1.41-1.41c.78-.78.78-2.05 0-2.83l-.89-.89c.36-.62.64-1.27.84-1.95H22c1.1 0 2-.9 2-2v-2c0-1.1-.9-2-2-2h-1.26c-.2-.68-.48-1.33-.84-1.95l.89-.89c.78-.78.78-2.05 0-2.83L20.49 2.5c-.78-.78-2.05-.78-2.83 0l-.89.89c-.62-.36-1.27-.64-1.95-.84V2c0-1.1-.9-2-2-2zm0 7c2.76 0 5 2.24 5 5s-2.24 5-5 5-5-2.24-5-5 2.24-5 5-5zm0 2c-1.66 0-3 1.34-3 3s1.34 3 3 3 3-1.34 3-3-1.34-3-3-3zm0 2c.55 0 1 .45 1 1s-.45 1-1 1-1-.45-1-1 .45-1 1-1z"/>
</svg>